<!-- C:\Users\Aleksandr\SaleScout\assets\icon\salescout-icon.svg -->
<svg xmlns="http://www.w3.org/2000/svg" width="1024" height="1024" viewBox="0 0 1024 1024">
  <defs>
    <radialGradient id="bgVignette" cx="50%" cy="35%" r="80%">
      <stop offset="0%" stop-color="#0E2A45"/>
      <stop offset="70%" stop-color="#0B1F33"/>
      <stop offset="100%" stop-color="#081627"/>
    </radialGradient>

    <linearGradient id="sweepGrad" x1="30%" y1="20%" x2="75%" y2="55%">
      <stop offset="0%" stop-color="#1ECAD3" stop-opacity="0.00"/>
      <stop offset="55%" stop-color="#1ECAD3" stop-opacity="0.18"/>
      <stop offset="100%" stop-color="#1ECAD3" stop-opacity="0.35"/>
    </linearGradient>

    <linearGradient id="tagGrad" x1="20%" y1="15%" x2="85%" y2="90%">
      <stop offset="0%" stop-color="#B9FF3B"/>
      <stop offset="100%" stop-color="#2EFF7A"/>
    </linearGradient>

    <filter id="softShadow" x="-20%" y="-20%" width="140%" height="140%">
      <feGaussianBlur in="SourceAlpha" stdDeviation="10" result="blur"/>
      <feOffset dx="0" dy="10" result="off"/>
      <feColorMatrix in="off" type="matrix"
        values="0 0 0 0 0
                0 0 0 0 0
                0 0 0 0 0
                0 0 0 0.35 0" result="shadow"/>
      <feMerge>
        <feMergeNode in="shadow"/>
        <feMergeNode in="SourceGraphic"/>
      </feMerge>
    </filter>

    <clipPath id="iconClip">
      <rect x="64" y="64" width="896" height="896" rx="180" ry="180"/>
    </clipPath>
  </defs>

  <g clip-path="url(#iconClip)">
    <rect x="0" y="0" width="1024" height="1024" fill="url(#bgVignette)"/>

    <g transform="translate(512 512)">
      <line x1="-300" y1="0" x2="300" y2="0" stroke="#1ECAD3" stroke-opacity="0.22" stroke-width="14" stroke-linecap="round"/>
      <line x1="0" y1="-300" x2="0" y2="300" stroke="#1ECAD3" stroke-opacity="0.22" stroke-width="14" stroke-linecap="round"/>

      <circle r="320" fill="none" stroke="#1ECAD3" stroke-opacity="0.55" stroke-width="18"/>
      <circle r="230" fill="none" stroke="#1ECAD3" stroke-opacity="0.40" stroke-width="16"/>
      <circle r="140" fill="none" stroke="#1ECAD3" stroke-opacity="0.28" stroke-width="14"/>

      <circle r="34" fill="#1ECAD3" fill-opacity="0.70"/>

      <path
        d="M 0 0
           L 320 -10
           A 320 320 0 0 1 165 -275
           Z"
        fill="url(#sweepGrad)"
        transform="rotate(35)"
      />
    </g>

    <g transform="translate(690 430) rotate(-18)" filter="url(#softShadow)">
      <path
        d="M 0 50
           L 140 0
           Q 165 -12 182 8
           L 250 88
           Q 268 108 252 130
           L 164 252
           Q 148 274 124 260
           L 16 198
           Q -6 185 2 160
           Z"
        fill="url(#tagGrad)"
      />
      <circle cx="165" cy="58" r="20" fill="#081627" fill-opacity="0.85"/>

      <path d="M 278 88 A 52 52 0 0 1 278 160" fill="none" stroke="#1ECAD3" stroke-opacity="0.85" stroke-width="14" stroke-linecap="round"/>
      <path d="M 314 72 A 92 92 0 0 1 314 176" fill="none" stroke="#1ECAD3" stroke-opacity="0.55" stroke-width="12" stroke-linecap="round"/>
    </g>

    <rect x="64" y="64" width="896" height="896" rx="180" ry="180"
          fill="none" stroke="#FFFFFF" stroke-opacity="0.06" stroke-width="10"/>
  </g>
</svg>